<?xml version="1.0" encoding="utf-8"?>
<!-- Generator: Adobe Illustrator 27.1.0, SVG Export Plug-In . SVG Version: 6.00 Build 0)  -->
<svg version="1.1" id="Ebene_1" xmlns="http://www.w3.org/2000/svg" xmlns:xlink="http://www.w3.org/1999/xlink" x="0px" y="0px"
	 width="16px" height="16px" viewBox="0 0 16 16" style="enable-background:new 0 0 16 16;" xml:space="preserve">
<style type="text/css">
	.st0{fill:#FFC688;}
	.st1{fill:#FFE885;}
	.st2{fill:#88FFB8;}
	.st3{fill:#83FFF9;}
	.st4{fill:#1E2832;}
	.st5{fill:none;stroke:#1E2832;stroke-miterlimit:10;}
</style>
<rect x="0" y="0" transform="matrix(-1.890145e-07 1 -1 -1.890145e-07 16 5.015989e-06)" class="st0" width="16" height="16"/>
<rect x="0" y="8" transform="matrix(-1.890145e-07 1 -1 -1.890145e-07 16 8)" class="st1" width="8" height="8"/>
<rect x="8" y="0" transform="matrix(-1.890144e-07 1 -1 -1.890144e-07 16 -8)" class="st2" width="8" height="8"/>
<rect x="4" y="8" transform="matrix(-1.890144e-07 1 -1 -1.890144e-07 20 4)" class="st3" width="8" height="8"/>
<rect x="-2" y="2" transform="matrix(-1.890145e-07 1 -1 -1.890145e-07 6 2)" class="st3" width="8" height="4"/>
<g>
	<path class="st4" d="M15,1v14H1V1H15 M16,0H0v16h16V0L16,0z"/>
</g>
<g>
	<line class="st5" x1="16" y1="8" x2="0" y2="8"/>
</g>
<line class="st5" x1="8" y1="0" x2="8" y2="8"/>
<line class="st5" x1="12" y1="8" x2="12" y2="16"/>
<line class="st5" x1="4" y1="0" x2="4" y2="16"/>
</svg>
